<?xml version="1.0" encoding="UTF-8"?>
<svg viewBox="0 0 1920 597.07" xmlns="http://www.w3.org/2000/svg">
<defs>
<style>.cls-1{fill:#5c6cff;}.cls-2{fill:#5b4fd8;}.cls-3{isolation:isolate;}.cls-4{fill:#b75cff;}.cls-5{fill:#ff5c5c;}.cls-6{fill:#f79454;}.cls-7{fill:#5cff9d;}.cls-8{fill:#ffdb5c;}</style>
</defs>
<g class="cls-3">
<path class="cls-2" d="m312.28 130.87c0 23.36-5.34 44.27-16 62.74-10.67 18.47-24.14 32.65-40.42 42.53-12.24 7.41-25.66 12.58-40.26 15.5s-31.89 4.38-51.88 4.38h-88.43v-250.8h90.96c20.44 0 38.07 1.71 52.89 5.14s27.29 8.28 37.39 14.57c17.29 10.56 30.91 24.79 40.85 42.7s14.91 38.99 14.91 63.25zm-66.87-0.5c0-16.51-3.01-30.63-9.01-42.36-6.01-11.73-15.53-20.91-28.55-27.54-6.63-3.26-13.39-5.47-20.3-6.65s-17.32-1.77-31.25-1.77h-16.34v156.98h16.34c15.38 0 26.67-0.7 33.86-2.11 7.18-1.4 14.2-3.96 21.05-7.66 11.79-6.74 20.44-15.75 25.94-27.03 5.5-11.29 8.25-25.24 8.25-41.86z"/>
<path class="cls-2" d="M497.22,256.02h-146.88v-44.47h41.1V49.69h-41.1V5.22h146.88V49.69h-41.1V211.56h41.1v44.47Z"/>
<path class="cls-2" d="m750.72 177.19c0 24.7-10.47 44.78-31.41 60.22s-49.38 23.16-85.31 23.16c-20.78 0-38.88-1.83-54.32-5.47-15.44-3.65-29.9-8.28-43.37-13.9v-60.13h7.07c13.36 10.67 28.32 18.86 44.89 24.59 16.56 5.73 32.48 8.59 47.75 8.59 3.93 0 9.1-0.34 15.5-1.01s11.62-1.79 15.66-3.37c4.94-2.02 9.01-4.55 12.21-7.58s4.8-7.52 4.8-13.48c0-5.5-2.33-10.25-6.99-14.23s-11.48-7.04-20.46-9.18c-9.43-2.24-19.4-4.35-29.9-6.32-10.5-1.96-20.35-4.46-29.56-7.5-21.11-6.85-36.3-16.14-45.56-27.88-9.26-11.73-13.9-26.3-13.9-43.71 0-23.36 10.47-42.42 31.41-57.18s47.86-22.15 80.77-22.15c16.51 0 32.82 1.6 48.93 4.8s30.07 7.22 41.86 12.04v57.77h-6.91c-10.11-8.09-22.49-14.85-37.14-20.3-14.65-5.44-29.62-8.17-44.89-8.17-5.39 0-10.75 0.37-16.09 1.1-5.33 0.73-10.47 2.1-15.41 4.13-4.38 1.68-8.14 4.24-11.29 7.66-3.15 3.43-4.72 7.33-4.72 11.71 0 6.63 2.53 11.71 7.58 15.24s14.6 6.77 28.63 9.69c9.21 1.91 18.05 3.76 26.53 5.56s17.6 4.27 27.37 7.41c19.2 6.29 33.38 14.85 42.53 25.69s13.73 24.9 13.73 42.19z"/>
<path class="cls-2" d="m908.37 260.91c-18.64 0-35.85-2.75-51.62-8.25-15.78-5.5-29.34-13.7-40.68-24.59s-20.13-24.48-26.36-40.76-9.35-35.09-9.35-56.43c0-19.88 2.97-37.9 8.93-54.07 5.95-16.17 14.6-30.04 25.94-41.6 10.89-11.12 24.39-19.71 40.51-25.77 16.11-6.06 33.71-9.1 52.8-9.1 10.55 0 20.07 0.59 28.55 1.77s16.31 2.72 23.5 4.63c7.52 2.13 14.34 4.52 20.46 7.16s11.48 5.08 16.09 7.33v60.81h-7.41c-3.15-2.68-7.1-5.86-11.87-9.55s-10.19-7.32-16.25-10.9c-6.18-3.57-12.86-6.59-20.04-9.05-7.19-2.46-14.88-3.69-23.08-3.69-9.1 0-17.74 1.43-25.94 4.29s-15.78 7.59-22.74 14.2c-6.63 6.39-11.99 14.85-16.09 25.38s-6.15 23.31-6.15 38.32 2.22 28.8 6.65 39.33c4.44 10.54 10.02 18.83 16.76 24.88 6.85 6.16 14.49 10.56 22.91 13.2 8.42 2.63 16.73 3.95 24.93 3.95s15.64-1.17 23.33-3.52 14.79-5.53 21.31-9.55c5.5-3.24 10.61-6.7 15.33-10.39s8.59-6.87 11.62-9.55h6.74v59.96c-6.29 2.81-12.3 5.45-18.02 7.92-5.73 2.47-11.74 4.61-18.02 6.4-8.2 2.36-15.89 4.15-23.08 5.39-7.19 1.23-17.07 1.85-29.64 1.85z"/>
<path class="cls-2" d="m1288.5 130.71c0 39.98-11.45 71.73-34.36 95.25-22.91 23.53-54.57 35.29-95 35.29s-71.92-11.76-94.83-35.29c-22.91-23.52-34.36-55.27-34.36-95.25s11.45-72.18 34.36-95.59 54.52-35.12 94.83-35.12 71.81 11.71 94.83 35.12 34.53 55.28 34.53 95.59zm-85.73 63.5c6.29-7.64 10.95-16.65 13.98-27.03s4.55-22.6 4.55-36.63c0-15.05-1.74-27.85-5.22-38.4s-8.03-19.09-13.64-25.6c-5.73-6.74-12.32-11.62-19.79-14.65s-15.24-4.55-23.33-4.55-15.92 1.46-23.16 4.38-13.9 7.75-19.96 14.49c-5.62 6.29-10.19 14.96-13.73 26.02s-5.31 23.89-5.31 38.49 1.71 27.65 5.14 38.15c3.42 10.5 7.94 19.06 13.56 25.69 5.61 6.63 12.18 11.51 19.71 14.65 7.52 3.14 15.44 4.72 23.75 4.72s16.22-1.6 23.75-4.8c7.52-3.2 14.09-8.17 19.71-14.91z"/>
<path class="cls-2" d="m1579.4 256.02h-79l-68.23-91.97h-29.97v91.97h-64.34v-250.8h108.47c14.82 0 27.56 0.84 38.23 2.53 10.67 1.68 20.66 5.33 29.98 10.95 9.43 5.62 16.93 12.89 22.49 21.81 5.56 8.93 8.34 20.13 8.34 33.6 0 18.53-4.3 33.63-12.89 45.31s-20.86 21.39-36.8 29.14l83.71 107.46zm-100.89-173.99c0-6.29-1.29-11.68-3.87-16.17s-7.02-8.03-13.31-10.61c-4.38-1.79-9.49-2.89-15.33-3.28s-12.63-0.59-20.38-0.59h-23.41v67.54h19.87c10.33 0 18.98-0.5 25.94-1.52 6.96-1.01 12.8-3.31 17.52-6.91 4.49-3.48 7.78-7.33 9.85-11.54 2.08-4.21 3.12-9.85 3.12-16.93z"/>
<path class="cls-2" d="m1844.7 130.87c0 23.36-5.33 44.27-16 62.74s-24.14 32.65-40.42 42.53c-12.24 7.41-25.66 12.58-40.26 15.5s-31.89 4.38-51.88 4.38h-88.43v-250.8h90.96c20.44 0 38.07 1.71 52.89 5.14s27.29 8.28 37.39 14.57c17.29 10.56 30.91 24.79 40.84 42.7 9.94 17.91 14.91 38.99 14.91 63.25zm-66.87-0.5c0-16.51-3.01-30.63-9.01-42.36-6.01-11.73-15.52-20.91-28.55-27.54-6.63-3.26-13.39-5.47-20.3-6.65s-17.32-1.77-31.24-1.77h-16.34v156.98h16.34c15.38 0 26.67-0.7 33.86-2.11 7.18-1.4 14.2-3.96 21.05-7.66 11.79-6.74 20.44-15.75 25.94-27.03 5.5-11.29 8.25-25.24 8.25-41.86z"/>
</g>
<g>
<path class="cls-4" d="M182.98,579.64h-5.37l4.48,13.11h63.19l-4.48-12.05c-21.28-.71-40.55-1.06-57.82-1.06m-146.5,5.29c-12.46,.66-23.89,1.23-34.28,1.71l-2.2,6.11H61.56l3.18-9.28c-8.47,.44-17.88,.92-28.26,1.47m1052.67,4.23v3.58h61.07v-5.13c-5.82,.27-11.17,.49-16.04,.65-15.88,.54-30.89,.84-45.03,.9m241.12,3.58v-12.95c-15.27,.27-31.8,.76-49.59,1.47-3.2,.14-7.03,.31-11.48,.49v10.99h61.07m-1051.04-10.42v10.42h61.07v-7.25c-3.9-.16-7.92-.35-12.05-.57-19.84-1.06-36.18-1.93-49.02-2.61m228.09,5.94v4.48h138.68v-13.35c-5.16,.47-10.4,.94-15.72,1.38-45.02,3.74-86.01,6.24-122.96,7.49m379.31-37.38l-29.23,6.03v35.83h61.07v-24.84c-.79-.31-1.58-.64-2.36-.98-9.55-4.18-19.38-9.53-29.48-16.04m792.66,37.38c-11.61,.39-22.82,.66-33.63,.81-21.99,.38-46.42,.11-73.29-.81-16.29-.54-37.76-1.52-64.41-2.93v7.41h171.33v-4.48m56.51-2.77c7.31,2.42,14.91,4.56,22.8,6.43,14.49,3.42,31.57,5.13,51.22,5.13,33.93,0,60.8-7.27,80.62-21.82,1.82-1.35,3.56-2.73,5.21-4.15-7.68,.98-16.34,2.01-25.98,3.09-21.12,2.33-43.92,4.53-68.4,6.6-22.87,1.9-44.69,3.48-65.47,4.72Z"/>
<path class="cls-1" d="M181.51,517.75c-22.15,0-46.28,.73-72.39,2.2-20.74,1.25-45.03,3.07-72.88,5.46-4.05,.37-7.98,.73-11.81,1.06l-22.23,60.18c10.39-.48,21.82-1.05,34.28-1.71,10.37-.54,19.79-1.03,28.26-1.47l13.35-38.6h87.62l11.89,34.77h5.37c17.27,0,36.54,.35,57.82,1.06l-23.05-62.38c-12.72-.38-24.79-.57-36.24-.57m968.71,12.87c-6.02,.55-11.37,1.04-16.04,1.47-16.57,1.5-31.58,2.78-45.03,3.83v53.26c14.14-.05,29.15-.35,45.03-.9,4.87-.16,10.22-.38,16.04-.65v-57m129.88-10.67c-3.53,.21-7.17,.43-10.91,.65v61.16c4.45-.18,8.28-.35,11.48-.49,17.79-.7,34.32-1.19,49.59-1.47v-61.81c-15.82,.31-32.54,.97-50.16,1.95m-939.8,5.78c-3.88-.28-7.93-.58-12.13-.9-18.54-1.39-34.85-2.53-48.94-3.42v60.91c12.84,.68,29.18,1.54,49.02,2.61,4.13,.22,8.15,.41,12.05,.57v-59.77m305.7,25h-38.76v-19.79c-21.14,1.23-41.5,2.07-61.07,2.52v17.26h-38.84v37.54c36.95-1.25,77.94-3.75,122.96-7.49,5.32-.45,10.56-.91,15.72-1.38v-28.66m211.4,6.19l29.23-6.03c10.1,6.51,19.92,11.86,29.48,16.04,.78,.34,1.57,.67,2.36,.98v-23.29c-17.96,.39-38.31,.63-61.07,.73v11.56m711.31-9.93v-17.02c-11.61-.79-31.86-2.28-60.75-4.48v59.85c26.66,1.41,48.13,2.39,64.41,2.93,26.87,.92,51.3,1.19,73.29,.81,10.81-.16,22.02-.43,33.63-.81v-41.29h-110.58m197.96-1.79c-9.49-3.28-18.42-7.41-26.79-12.38-7.53,.28-14.97,.5-22.31,.65v45.28c5.87,2.46,11.95,4.71,18.24,6.76,20.78-1.25,42.6-2.82,65.47-4.72,24.48-2.06,47.28-4.26,68.4-6.6,9.64-1.08,18.29-2.11,25.98-3.09,15.92-13.72,24.04-30.91,24.35-51.55l-29.4,2.77c-13.23,1.19-24.52,2.2-33.88,3.01,.33,1.27,.49,2.6,.49,3.99,0,5.59-1.49,9.83-4.48,12.7-3.09,2.88-6.98,5.27-11.64,7.17-3.8,1.47-8.71,2.52-14.74,3.18-6.03,.65-10.91,.98-14.66,.98-14.39,0-29.4-2.71-45.03-8.14Z"/>
<path class="cls-7" d="M182.24,460.02c-14.25-.35-29.48-.46-45.68-.33l14.33,41.77h-58.14l14.09-41.29c-15.78,.42-35.32,1.09-58.63,2.04l-23.78,64.25c3.83-.33,7.76-.69,11.81-1.06,27.85-2.39,52.14-4.21,72.88-5.46,26.11-1.47,50.24-2.2,72.39-2.2,11.44,0,23.52,.19,36.24,.57l-21.42-57.9c-4.82-.15-9.51-.29-14.09-.41m990.21,4.15c-19.36,.87-32.28,1.41-38.76,1.63-24.74,.88-46.94,1.37-66.61,1.47l22.07,36.73v31.92c13.45-1.05,28.46-2.32,45.03-3.83,4.67-.42,10.02-.91,16.04-1.47v-29.48l22.23-36.97m253.9-.49c-12.68-.88-24.7-1.61-36.07-2.2-4.55,3.75-10.14,6.25-16.78,7.49-6.79,1.3-15.36,1.95-25.73,1.95h-17.51v-11.24c-15.69-.11-32.41,.06-50.16,.49-3.45,.08-7.09,.16-10.91,.24v60.18c3.74-.22,7.38-.44,10.91-.65,17.62-.99,34.34-1.64,50.16-1.95v-2.36h38.03c17.26,0,31.73-2.39,43.4-7.17,11.56-4.78,22.07-11.83,31.51-21.17,5.93-5.93,10.65-13.01,14.17-21.25-14.25-1.12-24.59-1.91-31.03-2.36m-1086.06,7.25v-.65c-3.78-.28-7.66-.58-11.64-.9-20.27-1.63-36.75-2.93-49.43-3.91v55.94c14.09,.89,30.41,2.03,48.94,3.42,4.21,.32,8.25,.62,12.13,.9v-10.1h38.03c17.26,0,31.73-2.39,43.4-7.17,11.56-4.78,22.07-11.83,31.51-21.17,3.19-3.19,6.04-6.72,8.55-10.59-18.43-.23-38.41-.94-59.93-2.12-14.2-.84-31.93-2.06-53.18-3.66h-8.39m266.93,60.02v-61.4c-21.13,2.12-41.49,3.78-61.07,4.97v58.96c19.57-.46,39.93-1.3,61.07-2.52m250.16-74.27v88.68c22.76-.1,43.12-.34,61.07-.73v-82.9c-17.94-1.26-38.3-2.94-61.07-5.05m813.91,19.79c-8.61,.22-17.05,.33-25.33,.33-21.99,0-46.36-.73-73.13-2.2-16.74-.98-38.38-2.5-64.9-4.56v55.46c28.89,2.2,49.14,3.69,60.75,4.48v-41.53h102.6v-11.97m248.69,43.08c0-.41,0-.82,0-1.22,0-16.34-4.29-29.59-12.87-39.74-7.24-8.6-17.77-15.68-31.6-21.25-11.88,1.74-22.09,3.18-30.62,4.32-20.41,2.77-39.96,5.13-58.63,7.08-16.93,1.78-33.38,3.24-49.35,4.4,8.82,8.61,21.55,15.61,38.19,21.01,8.69,2.88,18.02,5.27,28.01,7.17,9.83,1.79,19.19,3.75,28.09,5.86,8.52,2.01,15.01,4.94,19.46,8.79,3.19,2.71,5.2,5.83,6.03,9.36,9.36-.82,20.65-1.82,33.88-3.01l29.4-2.77m-202.44,13.92c7.34-.15,14.78-.37,22.31-.65-5.45-3.25-10.66-6.86-15.63-10.83h-6.68v11.48Z"/>
<path class="cls-8" d="M136.56,459.69c16.21-.13,31.44-.03,45.68,.33,4.57,.12,9.27,.25,14.09,.41l-21.99-59.61c-19.04,.8-40.59,2.05-64.66,3.75-3.91,.27-17.7,1.28-41.37,3.01l-20.11,54.64c23.31-.94,42.85-1.62,58.63-2.04l14.98-43.48,14.74,43m1002.02-45.03l-17.59,32.57-17.34-30.94c-15.1,.54-29.35,.81-42.75,.81-7.83,0-15.81-.08-23.94-.24l30.13,50.41c19.67-.1,41.87-.59,66.61-1.47,6.48-.22,19.4-.76,38.76-1.63l32.49-53.99c-26.26,2.03-48.38,3.52-66.37,4.48m191.69,45.03v-58.22c-15.13,.8-31.66,1.83-49.59,3.09-1.78,.12-5.61,.4-11.48,.81v55.05c3.82-.08,7.46-.16,10.91-.24,17.75-.43,34.47-.6,50.16-.49m127.12,6.35c.62-1.36,1.19-2.74,1.71-4.15,3.69-10.21,5.54-20.6,5.54-31.19,0-11.39-1.71-21.44-5.13-30.13-34.74-1.15-68.23-1.23-100.49-.24,2.17,.04,4.15,.1,5.94,.16,6.03,.33,12.21,1.74,18.57,4.23,4.78,1.95,8.98,5.29,12.62,10.02,3.58,4.89,5.37,10.67,5.37,17.34s-.84,12.4-2.52,17.18c-1.79,4.67-4.67,8.71-8.63,12.13-.03,.03-.06,.05-.08,.08,11.37,.59,23.39,1.32,36.07,2.2,6.43,.45,16.77,1.24,31.03,2.36m-1117.08-62.95c-4.04-.26-8.06-.51-12.05-.73-16.61-.92-32.95-1.63-49.02-2.12v65.23c12.68,.98,29.16,2.28,49.43,3.91,3.98,.31,7.87,.61,11.64,.9v-67.18m121.5,73.61c2.9-4.49,5.35-9.43,7.33-14.82,3.69-10.21,5.54-20.6,5.54-31.19,0-5.43-.41-10.56-1.22-15.39-25.69-3.02-50.6-5.63-74.75-7.82,2.73,1.89,5.23,4.31,7.49,7.25,3.58,4.89,5.37,10.67,5.37,17.34s-.84,12.4-2.52,17.18c-1.79,4.67-4.67,8.71-8.63,12.13-4.56,3.8-10.18,6.32-16.86,7.57-6.79,1.3-15.36,1.95-25.73,1.95h-9.12c21.25,1.61,38.97,2.83,53.18,3.66,21.52,1.18,41.5,1.88,59.93,2.12m145.44-7.17v-35.67c-21.23-3.28-41.59-6.32-61.07-9.12v49.75c19.58-1.19,39.94-2.84,61.07-4.97m311.23-7.82v-52.36c-18.14-1.72-37.2-3.81-57.17-6.27-1.25-.16-2.55-.32-3.91-.49v54.07c22.77,2.1,43.13,3.79,61.07,5.05m-102.52-64.49l-32.49-4.56v9.04h66.86c-9.39-1.2-20.84-2.69-34.36-4.48m830.03,79.56c8.27,0,16.71-.11,25.33-.33v-33.88h-102.6v-35.18c-20.85-1.84-41.09-3.36-60.75-4.56v67.18c26.52,2.06,48.16,3.58,64.9,4.56,26.76,1.47,51.14,2.2,73.13,2.2m72.96-51.71v1.47c0,16.45,4.42,30.24,13.27,41.37,1.43,1.81,3,3.55,4.72,5.21,15.97-1.16,32.42-2.62,49.35-4.4,18.68-1.95,38.22-4.32,58.63-7.08,8.53-1.14,18.74-2.58,30.62-4.32-2.74-1.08-5.62-2.11-8.63-3.09-9.23-2.99-17.83-5.32-25.81-7-8.03-1.68-16.4-3.45-25.08-5.29-7.66-1.57-13.91-3.25-18.73-5.05-3.76-.57-7.45-1.14-11.07-1.71-23.46-3.7-45.88-7.07-67.26-10.1Z"/>
<path class="cls-6" d="M118.48,355.95c-2.9,.45-5.83,.91-8.79,1.38-6.68,1.12-14.77,2.5-24.27,4.15l-17.1,46.09c23.67-1.73,37.45-2.74,41.37-3.01,24.07-1.69,45.62-2.94,64.66-3.75l-16.61-44.87h-39.25m1113.17,9.77c-12.29,2.16-20.36,3.57-24.19,4.23-18.04,3.07-34.29,5.59-48.78,7.57l-20.11,37.13c17.99-.96,40.11-2.45,66.37-4.48l26.71-44.46m-145.68,18.97c-8.63,.43-16.99,.65-25.08,.65-14.11,0-28.74-.6-43.89-1.79l19.95,33.31c8.13,.16,16.11,.24,23.94,.24,13.4,0,27.65-.27,42.75-.81l-17.67-31.6m203.5-28.75c-2.9,.45-5.83,.91-8.79,1.38-3.45,.58-7.28,1.23-11.48,1.95v46.09c5.87-.42,9.7-.69,11.48-.81,17.93-1.26,34.46-2.29,49.59-3.09v-1.3h10.5c7.09,0,13.17,.05,18.24,.16,32.25-.99,65.75-.91,100.49,.24-.69-1.73-1.45-3.41-2.28-5.05-5.1-9.77-12.43-17.78-21.99-24.02-7.93-5.16-17.05-9.01-27.36-11.56-10.37-2.66-23.1-3.99-38.19-3.99h-80.21m-816.03,59.36c-1.15-7.3-3.21-13.89-6.19-19.79-5.1-9.77-12.43-17.78-21.99-24.02-7.93-5.16-17.05-9.01-27.36-11.56-10.37-2.66-23.1-3.99-38.19-3.99h-100.49v44.3c16.07,.49,32.41,1.2,49.02,2.12,3.99,.22,8.01,.47,12.05,.73v-2.93h10.5c10.1,0,18.16,.11,24.19,.33,6.03,.33,12.21,1.74,18.57,4.23,1.81,.74,3.52,1.66,5.13,2.77,24.15,2.19,49.07,4.79,74.75,7.82m33.88-59.36v41.94h38.84v26.87c19.49,2.8,39.85,5.84,61.07,9.12v-35.99h38.76v-41.29c-10.97-.09-21.23-.2-30.78-.33-7.01-.1-13.93-.2-20.77-.33h-87.13m276.14,0v36.73l32.49,4.56c13.52,1.79,24.98,3.28,34.36,4.48h7.08v.9c1.36,.17,2.66,.33,3.91,.49,19.97,2.46,39.02,4.55,57.17,6.27v-7.65h73.94v-20.6c-22.89-2.66-46.89-6.59-71.99-11.81-18.06-3.69-37.14-8.14-57.25-13.35h-79.72m785.25,51.46v-5.7h110.58v-45.76h-171.33v46.9c19.65,1.2,39.9,2.72,60.75,4.56m242.83-11.07c4.99-.76,10.04-1.14,15.15-1.14,14.39,0,28.53,2.61,42.43,7.82,13.79,5.1,25.46,11.45,35.02,19.06h6.51v-54.56c-10.43-4.28-22.65-7.83-36.64-10.67-33.93-.05-63.19-.24-87.78-.57-.43,0-.86,0-1.3,0-13.64,3.48-25.69,8.93-36.16,16.37-19.42,13.59-29.36,31.07-29.8,52.44,21.39,3.03,43.81,6.4,67.26,10.1,3.62,.57,7.31,1.14,11.07,1.71-3.52-1.26-6.29-2.59-8.31-3.99-4.78-3.37-7.17-8.2-7.17-14.49,0-4.13,1.49-7.76,4.48-10.91,2.93-3.31,6.49-5.75,10.67-7.33,4.61-1.9,9.47-3.18,14.58-3.83Z"/>
<path class="cls-5" d="M109.69,357.33c2.97-.48,5.9-.94,8.79-1.38h-31.03l-2.04,5.54c9.5-1.65,17.59-3.03,24.27-4.15m1060.73-1.38l-11.73,21.58c14.48-1.98,30.74-4.51,48.78-7.57,3.83-.67,11.89-2.08,24.19-4.23l5.94-9.77h-67.18m-169.95,0l16.53,27.61c15.15,1.19,29.78,1.79,43.89,1.79,8.09,0,16.45-.22,25.08-.65l-16.04-28.75h-69.46m280.21,1.38c2.97-.48,5.9-.94,8.79-1.38h-20.28v3.34c4.2-.72,8.03-1.38,11.48-1.95m-665.46-1.06c9.55,.13,19.81,.24,30.78,.33v-.65h-51.55c6.83,.12,13.75,.23,20.77,.33m247.96-.33c20.11,5.22,39.19,9.67,57.25,13.35,25.1,5.22,49.09,9.15,71.99,11.81v-25.16h-129.23m921.73,.33c.44,0,.88,0,1.3,0,24.59,.33,53.85,.52,87.78,.57-.9-.2-1.82-.39-2.77-.57-15.31-3.09-30.75-4.64-46.33-4.64-14.57,0-27.9,1.55-39.98,4.64Z"/>
</g>
</svg>
