<?xml version="1.0" encoding="UTF-8"?>
<svg preserveAspectRatio="none" version="1.1" viewBox="0 0 1920 1080" xmlns="http://www.w3.org/2000/svg" xmlns:xlink="http://www.w3.org/1999/xlink">
<defs>
<g id="b">
<path d="m480.5 705.45q-1.6311 0-3.3 0l2.75 8.05h38.8l-2.75-7.4q-19.595-0.65-35.5-0.65m-89.95 3.25q-11.477 0.60508-21.05 1.05l-1.35 3.75h37.8l1.95-5.7q-7.7967 0.40176-17.35 0.9m646.35 2.6v2.2h37.5v-3.15q-5.3625 0.25078-9.85 0.4-14.625 0.50117-27.65 0.55m148.05 2.2v-7.95q-14.067 0.25117-30.45 0.9-2.9479 0.13125-7.05 0.3v6.75h37.5m-645.35-6.4v6.4h37.5v-4.45q-3.5939-0.14824-7.4-0.35-18.275-0.97793-30.1-1.6m140.05 3.65v2.75h85.15v-8.2q-4.752 0.4373-9.65 0.85-41.466 3.449-75.5 4.6m232.9-22.95-17.95 3.7v22h37.5v-15.25q-0.72969-0.28496-1.45-0.6-8.8-3.85-18.1-9.85m486.7 22.95q-10.691 0.35586-20.65 0.5-20.25 0.35-45-0.5-14.999-0.49688-39.55-1.8v4.55h105.2v-2.75m34.7-1.7q6.7342 2.2277 14 3.95 13.35 3.15 31.45 3.15 31.25 0 49.5-13.4 1.6762-1.2422 3.2-2.55-7.0754 0.90332-15.95 1.9-19.45 2.15-42 4.05-21.063 1.752-40.2 2.9z" fill="#B75CFF"/>
<path d="m479.6 667.45q-20.4 0-44.45 1.35-19.1 1.15-44.75 3.35-3.727 0.34277-7.25 0.65l-13.65 36.95q9.5734-0.44492 21.05-1.05 9.5533-0.49824 17.35-0.9l8.2-23.7h53.8l7.3 21.35q1.6689 0 3.3 0 15.905 0 35.5 0.65l-14.15-38.3q-11.712-0.35-22.25-0.35m594.8 7.9q-5.5447 0.51113-9.85 0.9-15.263 1.385-27.65 2.35v32.7q13.025-0.048828 27.65-0.55 4.4875-0.14922 9.85-0.4v-35m79.75-6.55q-3.2549 0.1959-6.7 0.4v37.55q4.1021-0.16875 7.05-0.3 16.383-0.64883 30.45-0.9v-37.95q-14.569 0.28887-30.8 1.2m-577.05 3.55q-3.5742-0.25527-7.45-0.55-17.071-1.2781-30.05-2.1v37.4q11.825 0.62207 30.1 1.6 3.8061 0.20176 7.4 0.35v-36.7m187.7 15.35h-23.8v-12.15q-19.473 1.1309-37.5 1.55v10.6h-23.85v23.05q34.034-1.151 75.5-4.6 4.898-0.4127 9.65-0.85v-17.6m129.8 3.8 17.95-3.7q9.3 6 18.1 9.85 0.72031 0.31504 1.45 0.6v-14.3q-16.538 0.35859-37.5 0.45v7.1m436.75-6.1v-10.45q-10.69-0.725-37.3-2.75v36.75q24.551 1.3031 39.55 1.8 24.75 0.85 45 0.5 9.9592-0.14414 20.65-0.5v-25.35h-67.9m121.55-1.1q-8.7391-3.0238-16.45-7.6-6.9395 0.26035-13.7 0.4v27.8q5.4029 2.2627 11.2 4.15 19.137-1.148 40.2-2.9 22.55-1.9 42-4.05 8.8746-0.99668 15.95-1.9 14.666-12.64 14.95-31.65l-18.05 1.7q-12.182 1.098-20.8 1.85 0.3 1.1719 0.3 2.45 0 5.15-2.75 7.8-2.85 2.65-7.15 4.4-3.5 1.35-9.05 1.95t-9 0.6q-13.25 0-27.65-5z" fill="#5C6CFF"/>
<path d="m480.05 632q-13.122-0.32324-28.05-0.2l8.8 25.65h-35.7l8.65-25.35q-14.53 0.3834-36 1.25l-14.6 39.45q3.523-0.30723 7.25-0.65 25.65-2.2 44.75-3.35 24.05-1.35 44.45-1.35 10.538 0 22.25 0.35l-13.15-35.55q-4.4373-0.14277-8.65-0.25m608 2.55q-17.831 0.80098-23.8 1-22.786 0.80742-40.9 0.9l13.55 22.55v19.6q12.387-0.96504 27.65-2.35 4.3053-0.38887 9.85-0.9v-18.1l13.65-22.7m155.9-0.3q-11.678-0.80938-22.15-1.35-4.1928 3.458-10.3 4.6-6.25 1.2-15.8 1.2h-10.75v-6.9q-14.45-0.098828-30.8 0.3-3.1779 0.073242-6.7 0.15v36.95q3.4451-0.2041 6.7-0.4 16.231-0.91113 30.8-1.2v-1.45h23.35q15.9 0 26.65-4.4 10.65-4.4 19.35-13 5.4572-5.4572 8.7-13.05-13.125-1.0348-19.05-1.45m-666.85 4.45v-0.4q-3.4807-0.26133-7.15-0.55-18.672-1.4971-30.35-2.4v34.35q12.979 0.82188 30.05 2.1 3.8758 0.29473 7.45 0.55v-6.2h23.35q15.9 0 26.65-4.4 10.65-4.4 19.35-13 2.94-2.94 5.25-6.5-16.979-0.21445-36.8-1.3-13.083-0.76953-32.65-2.25h-5.15m163.9 36.85v-37.7q-19.464 1.9551-37.5 3.05v36.2q18.027-0.41914 37.5-1.55m153.6-45.6v54.45q20.962-0.091406 37.5-0.45v-50.9q-16.524-1.1613-37.5-3.1m499.75 12.15q-7.9324 0.2-15.55 0.2-20.25 0-44.9-1.35-15.42-0.90703-39.85-2.8v34.05q26.61 2.025 37.3 2.75v-25.5h63v-7.35m152.7 26.45q0-0.37871 0-0.75 0-15.05-7.9-24.4-6.6695-7.9201-19.4-13.05-10.941 1.5998-18.8 2.65-18.8 2.55-36 4.35-15.593 1.6352-30.3 2.7 8.1209 7.9295 23.45 12.9 8 2.65 17.2 4.4 9.05 1.65 17.25 3.6 7.85 1.85 11.95 5.4 2.935 2.4947 3.7 5.75 8.6184-0.75195 20.8-1.85l18.05-1.7m-124.3 8.55q6.7605-0.13965 13.7-0.4-5.0154-2.9941-9.6-6.65h-4.1v7.05z" fill="#5CFF9D"/>
<path d="m452 631.8q14.928-0.12324 28.05 0.2 4.2127 0.10723 8.65 0.25l-13.5-36.6q-17.532 0.74121-39.7 2.3-3.6041 0.25234-25.4 1.85l-12.35 33.55q21.47-0.8666 36-1.25l9.2-26.7 9.05 26.4m615.25-27.65-10.8 20-10.65-19q-13.906 0.5-26.25 0.5-7.2121 0-14.7-0.15l18.5 30.95q18.114-0.092578 40.9-0.9 5.9693-0.19902 23.8-1l19.95-33.15q-24.181 1.8703-40.75 2.75m117.7 27.65v-35.75q-13.935 0.73887-30.45 1.9-1.6414 0.11484-7.05 0.5v33.8q3.5221-0.076758 6.7-0.15 16.35-0.39883 30.8-0.3m78.05 3.9q0.57207-1.2494 1.05-2.55 3.4-9.4 3.4-19.15 0-10.493-3.15-18.5-31.993-1.0613-61.7-0.15 1.999 0.04043 3.65 0.1 5.55 0.3 11.4 2.6 4.4 1.8 7.75 6.15 3.3 4.5 3.3 10.65t-1.55 10.55q-1.65 4.3-5.3 7.45-0.029297 0.024414-0.05 0.05 10.472 0.54062 22.15 1.35 5.9248 0.41523 19.05 1.45m-685.9-38.65q-3.723-0.24395-7.4-0.45-15.299-0.84727-30.1-1.3v40.05q11.678 0.90293 30.35 2.4 3.6693 0.28867 7.15 0.55v-41.25m74.6 45.2q2.6742-4.1328 4.5-9.1 3.4-9.4 3.4-19.15 0-5.0014-0.75-9.45-23.657-2.7859-45.9-4.8 2.5158 1.7438 4.6 4.45 3.3 4.5 3.3 10.65t-1.55 10.55q-1.65 4.3-5.3 7.45-4.2 3.5-10.35 4.65-6.25 1.2-15.8 1.2h-5.6q19.567 1.4805 32.65 2.25 19.821 1.0855 36.8 1.3m89.3-4.4v-21.9q-19.551-3.025-37.5-5.6v30.55q18.036-1.0949 37.5-3.05m191.1-4.8v-32.15q-16.711-1.5816-35.1-3.85-1.1498-0.14297-2.4-0.3v33.2q20.976 1.9387 37.5 3.1m-62.95-39.6-19.95-2.8v5.55h41.05q-8.6447-1.1057-21.1-2.75m509.65 48.85q7.6176 0 15.55-0.2v-20.8h-63v-21.6q-19.199-1.6912-37.3-2.8v41.25q24.43 1.893 39.85 2.8 24.65 1.35 44.9 1.35m44.8-31.75q0 0.44531 0 0.9 0 15.15 8.15 25.4 1.317 1.6709 2.9 3.2 14.707-1.0648 30.3-2.7 17.2-1.8 36-4.35 7.859-1.0502 18.8-2.65-2.5227-0.99355-5.3-1.9-8.5-2.75-15.85-4.3-7.4-1.55-15.4-3.25-7.0574-1.4461-11.5-3.1-3.4629-0.52734-6.8-1.05-21.603-3.4086-41.3-6.2z" fill="#FFDB5C"/>
<path d="m440.9 568.1q-2.6684 0.4123-5.4 0.85-6.1498 1.0309-14.9 2.55l-10.5 28.3q21.796-1.5977 25.4-1.85 22.168-1.5588 39.7-2.3l-10.2-27.55h-24.1m683.5 6q-11.322 1.9865-14.85 2.6-16.611 2.8254-29.95 4.65l-12.35 22.8q16.569-0.87969 40.75-2.75l16.4-27.3m-89.45 11.65q-7.9471 0.4-15.4 0.4-12.998 0-26.95-1.1l12.25 20.45q7.4879 0.15 14.7 0.15 12.344 0 26.25-0.5l-10.85-19.4m124.95-17.65q-2.6684 0.4123-5.4 0.85-3.1773 0.53262-7.05 1.2v28.3q5.4086-0.38516 7.05-0.5 16.515-1.1611 30.45-1.9v-0.8h6.45q6.5334 0 11.2 0.1 29.707-0.91133 61.7 0.15-0.63906-1.5949-1.4-3.1-4.7-9-13.5-14.75-7.3-4.75-16.8-7.1-9.55-2.45-23.45-2.45h-49.25m-501.05 36.45q-1.0561-6.7223-3.8-12.15-4.7-9-13.5-14.75-7.3-4.75-16.8-7.1-9.55-2.45-23.45-2.45h-61.7v27.2q14.801 0.45273 30.1 1.3 3.677 0.20605 7.4 0.45v-1.8h6.45q9.3 0 14.85 0.2 5.55 0.3 11.4 2.6 1.6627 0.68008 3.15 1.7 22.243 2.0141 45.9 4.8m20.8-36.45v25.75h23.85v16.5q17.949 2.575 37.5 5.6v-22.1h23.8v-25.35q-10.102-0.082617-18.9-0.2-6.4582-0.088672-12.75-0.2h-53.5m169.55 0v22.55l19.95 2.8q12.455 1.6443 21.1 2.75h4.35v0.55q1.2502 0.15703 2.4 0.3 18.389 2.2684 35.1 3.85v-4.7h45.4v-12.65q-21.084-2.4463-44.2-7.25-16.633-3.3945-35.15-8.2h-48.95m482.15 31.6v-3.5h67.9v-28.1h-105.2v28.8q18.101 1.1088 37.3 2.8m149.1-6.8q4.6-0.7 9.3-0.7 13.25 0 26.05 4.8 12.7 4.7 21.5 11.7h4v-33.5q-9.6096-3.9375-22.5-6.55-31.253-0.048047-53.9-0.35-0.39258-0.0054688-0.8 0-12.565 3.2018-22.2 10.05-17.89 12.513-18.3 32.2 19.697 2.7914 41.3 6.2 3.3371 0.52266 6.8 1.05-3.2453-1.1643-5.1-2.45-4.4-3.1-4.4-8.9 0-3.8 2.75-6.7 2.7-3.05 6.55-4.5 4.25-1.75 8.95-2.35z" fill="#F79454"/>
<path d="m435.5 568.95q2.7316-0.4377 5.4-0.85h-19.05l-1.25 3.4q8.7502-1.5191 14.9-2.55m651.3-0.85-7.2 13.25q13.339-1.8246 29.95-4.65 3.5275-0.61348 14.85-2.6l3.65-6h-41.25m-104.35 0 10.15 16.95q13.952 1.1 26.95 1.1 7.4529 0 15.4-0.4l-9.85-17.65h-42.65m172.05 0.85q2.7316-0.4377 5.4-0.85h-12.45v2.05q3.8727-0.66738 7.05-1.2m-408.6-0.65q8.7982 0.11738 18.9 0.2v-0.4h-31.65q6.2918 0.11133 12.75 0.2m152.25-0.2q18.517 4.8055 35.15 8.2 23.116 4.8037 44.2 7.25v-15.45h-79.35m565.95 0.2q0.40742-0.0054688 0.8 0 22.647 0.30195 53.9 0.35-0.82832-0.18125-1.7-0.35-14.1-2.85-28.45-2.85-13.417 0-24.55 2.85z" fill="#FF5C5C"/>
</g>
</defs>
<g transform="translate(192.95 301)">
<clipPath id="a">
<rect x="237.7" y="-2" width="1058.7" height="247.05" fill="#fff"/>
</clipPath>
<text clip-path="url(#a)" writing-mode="lr"><tspan x="239.8" y="201.05" baseline-shift="0%" fill="#5865F2" font-family="Verdana" font-size="200" font-weight="bold" xml:space="preserve">DISCORD</tspan></text>
</g>
<g>
<use xlink:href="#b"/>
</g>
</svg>
