<?xml version="1.0" standalone="no"?>
<!DOCTYPE svg PUBLIC "-//W3C//DTD SVG 20010904//EN"
 "http://www.w3.org/TR/2001/REC-SVG-20010904/DTD/svg10.dtd">
<svg version="1.0" xmlns="http://www.w3.org/2000/svg"
 width="700.000000pt" height="700.000000pt" viewBox="0 0 700.000000 700.000000"
 preserveAspectRatio="xMidYMid meet">
<metadata>
Created by potrace 1.14, written by Peter Selinger 2001-2017
</metadata>
<g transform="translate(0.000000,700.000000) scale(0.100000,-0.100000)"
fill="#000000" stroke="none">
<path d="M0 3500 l0 -3500 3500 0 3500 0 0 3500 0 3500 -3500 0 -3500 0 0
-3500z m5385 850 l0 -185 -397 -3 -398 -2 0 -1040 0 -1040 -248 0 -249 0 -6
572 c-4 314 -7 782 -7 1040 l0 468 -395 0 -395 0 0 190 0 190 1048 -2 1047 -3
0 -185z m-3110 151 c254 -41 417 -114 563 -255 117 -112 199 -250 244 -411 19
-69 22 -106 22 -270 1 -170 -1 -199 -22 -271 l-23 -80 -110 -54 -109 -54 0
-117 0 -117 -47 -42 c-105 -92 -262 -166 -432 -202 -87 -19 -140 -21 -578 -25
l-483 -5 0 962 0 962 453 -5 c260 -3 482 -10 522 -16z m1563 -1142 l-3 -140
-282 -136 c-155 -75 -280 -139 -278 -142 2 -4 130 -67 284 -141 l281 -135 0
-137 c0 -76 -3 -138 -7 -138 -5 0 -208 99 -453 218 l-445 218 -3 115 -3 115
448 221 c246 122 451 222 456 222 4 1 6 -62 5 -140z m1456 -83 l456 -225 0
-104 c0 -72 -4 -108 -12 -115 -16 -12 -890 -442 -900 -442 -5 0 -8 62 -8 138
l0 137 281 135 c154 74 282 138 284 141 3 3 -124 68 -280 144 l-285 138 0 139
c0 76 2 138 4 138 3 0 210 -101 460 -224z"/>
<path d="M1800 3555 l0 -595 108 0 c287 1 429 45 552 172 149 154 184 507 74
736 -46 95 -120 169 -216 216 -103 51 -185 66 -365 66 l-153 0 0 -595z"/>
</g>
</svg>
